
<svg width="18px" height="18px" viewBox="40 0 18 18" version="1.1" xmlns="http://www.w3.org/2000/svg" xmlns:xlink="http://www.w3.org/1999/xlink">
    <!-- Generator: Sketch 3.8.3 (29802) - http://www.bohemiancoding.com/sketch -->
    <desc>Created with Sketch.</desc>
    <defs></defs>
    <path d="M40.7450394,0 C40.3334247,0 40,0.3358125 40,0.7498125 L40,17.2501875 C40,17.6641875 40.3334247,18 40.7450394,18 L49.4945055,18 L49.4945055,11.25 L47.2605042,11.25 L47.2605042,8.4375 L49.4945055,8.4375 L49.4945055,6.1875 C49.4945055,3.8626875 50.9561008,2.7185625 53.0152915,2.7185625 C54.0016031,2.7185625 54.8494066,2.7928125 55.0962637,2.8254375 L55.0962637,5.2554375 L53.6681784,5.256 C52.5483853,5.256 52.2870071,5.7920625 52.2870071,6.5784375 L52.2870071,8.4375 L55.0795087,8.4375 L54.5210084,11.25 L52.2870071,11.25 L52.3316871,18 L57.1275294,18 C57.5385856,18 57.8720103,17.6641875 57.8720103,17.2501875 L57.8720103,0.7498125 C57.8720103,0.3358125 57.5385856,0 57.1275294,0 L40.7450394,0 Z" id="Fill-3" stroke="none" fill="#4C4C4A" fill-rule="evenodd"></path>
</svg>