
<svg width="18px" height="18px" viewBox="80 0 18 18" version="1.1" xmlns="http://www.w3.org/2000/svg" xmlns:xlink="http://www.w3.org/1999/xlink">
    <!-- Generator: Sketch 3.8.3 (29802) - http://www.bohemiancoding.com/sketch -->
    <desc>Created with Sketch.</desc>
    <defs></defs>
    <path d="M95.638009,16.3125 L82.2340013,16.3125 C81.9257091,16.3125 81.675501,16.0605 81.675501,15.75 L81.675501,7.3125 L83.9095023,7.3125 C83.6185236,7.734375 83.5202275,8.5213125 83.5202275,9.0208125 C83.5202275,12.033 85.9591984,14.4838125 88.9566697,14.4838125 C91.9546994,14.4838125 94.3936703,12.033 94.3936703,9.0208125 C94.3936703,8.5213125 94.3232993,7.7461875 93.9625081,7.3125 L96.1965094,7.3125 L96.1965094,15.75 C96.1965094,16.0605 95.9463012,16.3125 95.638009,16.3125 M88.9566697,5.567625 C90.8550123,5.567625 92.3936807,7.1139375 92.3936807,9.0208125 C92.3936807,10.92825 90.8550123,12.4745625 88.9566697,12.4745625 C87.0588856,12.4745625 85.5202172,10.92825 85.5202172,9.0208125 C85.5202172,7.1139375 87.0588856,5.567625 88.9566697,5.567625 M93.4040078,2.25 L95.0795087,2.25 C95.3878009,2.25 95.638009,2.502 95.638009,2.8125 L95.638009,4.5 C95.638009,4.8105 95.3878009,5.0625 95.0795087,5.0625 L93.4040078,5.0625 C93.0957156,5.0625 92.8455074,4.8105 92.8455074,4.5 L92.8455074,2.8125 C92.8455074,2.502 93.0957156,2.25 93.4040078,2.25 M95.7474751,0 L82.1245352,0 C80.9511261,0 80,0.9556875 80,2.1346875 L80,15.8653125 C80,17.0443125 80.9511261,18 82.1245352,18 L95.7474751,18 C96.9208843,18 97.8720103,17.0443125 97.8720103,15.8653125 L97.8720103,2.1346875 C97.8720103,0.9556875 96.9208843,0 95.7474751,0" id="Fill-23" stroke="none" fill="#4C4C4A" fill-rule="evenodd"></path>
</svg>