
<svg width="18px" height="18px" viewBox="0 0 18 18" version="1.1" xmlns="http://www.w3.org/2000/svg" xmlns:xlink="http://www.w3.org/1999/xlink">
    <!-- Generator: Sketch 3.8.3 (29802) - http://www.bohemiancoding.com/sketch -->
    <desc>Created with Sketch.</desc>
    <defs></defs>
    <path d="M8.5044,0 C3.8084,0 0.000400000001,3.807 0.000400000001,8.504 C0.000400000001,11.986 2.0944,14.977 5.0914,16.292 C5.0674,15.699 5.0874,14.986 5.2384,14.34 C5.4024,13.65 6.3324,9.706 6.3324,9.706 C6.3324,9.706 6.0614,9.163 6.0614,8.361 C6.0614,7.1 6.7924,6.159 7.7014,6.159 C8.4744,6.159 8.8484,6.74 8.8484,7.436 C8.8484,8.214 8.3524,9.376 8.0974,10.454 C7.8844,11.356 8.5504,12.091 9.4394,12.091 C11.0504,12.091 12.1354,10.022 12.1354,7.57 C12.1354,5.707 10.8804,4.312 8.5974,4.312 C6.0184,4.312 4.4114,6.235 4.4114,8.384 C4.4114,9.125 4.6294,9.647 4.9714,10.052 C5.1294,10.238 5.1504,10.313 5.0934,10.526 C5.0534,10.682 4.9594,11.06 4.9204,11.208 C4.8634,11.424 4.6894,11.501 4.4954,11.421 C3.3064,10.936 2.7534,9.635 2.7534,8.173 C2.7534,5.757 4.7904,2.86 8.8304,2.86 C12.0774,2.86 14.2144,5.21 14.2144,7.731 C14.2144,11.068 12.3604,13.56 9.6254,13.56 C8.7084,13.56 7.8444,13.063 7.5494,12.5 C7.5494,12.5 7.0544,14.459 6.9504,14.837 C6.7704,15.493 6.4174,16.148 6.0944,16.659 C6.8594,16.885 7.6674,17.008 8.5044,17.008 C13.2004,17.008 17.0084,13.2 17.0084,8.504 C17.0084,3.807 13.2004,0 8.5044,0" id="Fill-1" stroke="none" fill="#4C4C4A" fill-rule="evenodd"></path>
</svg>