
<svg width="18px" height="15px" viewBox="0 1 18 15" version="1.1" xmlns="http://www.w3.org/2000/svg" xmlns:xlink="http://www.w3.org/1999/xlink">
    <!-- Generator: Sketch 3.8.3 (29802) - http://www.bohemiancoding.com/sketch -->
    <desc>Created with Sketch.</desc>
    <defs></defs>
    <path d="M17.8720103,2.731375 C17.2146555,3.025 16.5075941,3.2235625 15.7659056,3.313 C16.5232321,2.8556875 17.1046309,2.1323125 17.3782961,1.27 C16.6701176,1.693 15.8848662,2.000125 15.0499082,2.1660625 C14.3808248,1.4483125 13.4280233,1 12.3735747,1 C10.3484525,1 8.70702004,2.6531875 8.70702004,4.6928125 C8.70702004,4.9819375 8.73941306,5.26375 8.80196509,5.5343125 C5.75422883,5.3801875 3.05276277,3.9098125 1.24433872,1.6755625 C0.928786037,2.2211875 0.747831933,2.8556875 0.747831933,3.532375 C0.747831933,4.8131875 1.39513381,5.9438125 2.37865288,6.605875 C1.77770653,6.58675 1.2125042,6.4208125 0.718231416,6.1440625 C0.717672915,6.1598125 0.717672915,6.175 0.717672915,6.19075 C0.717672915,7.9800625 1.98155915,9.472375 3.65929412,9.8115625 C3.35156044,9.8959375 3.02763025,9.9409375 2.69308856,9.9409375 C2.45684292,9.9409375 2.22729929,9.917875 2.00334066,9.875125 C2.46968843,11.342125 3.82405171,12.40975 5.42862314,12.4395625 C4.17367292,13.430125 2.5925585,14.0201875 0.874611506,14.0201875 C0.578606335,14.0201875 0.287069166,14.00275 0,13.969 C1.62244344,15.016375 3.54982805,15.6278125 5.62074725,15.6278125 C12.3651972,15.6278125 16.0529748,10.0005625 16.0529748,5.120875 C16.0529748,4.9605625 16.0496238,4.801375 16.0423633,4.64275 C16.7589192,4.1224375 17.3805301,3.4721875 17.8720103,2.731375" id="Fill-1" stroke="none" fill="#4C4C4A" fill-rule="evenodd"></path>
</svg>