
<svg width="18px" height="13px" viewBox="120 3 18 13" version="1.1" xmlns="http://www.w3.org/2000/svg" xmlns:xlink="http://www.w3.org/1999/xlink">
    <!-- Generator: Sketch 3.8.3 (29802) - http://www.bohemiancoding.com/sketch -->
    <desc>Created with Sketch.</desc>
    <defs></defs>
    <path d="M127.09072,11.66475 L127.090162,6.6073125 L131.918955,9.14475 L127.09072,11.66475 Z M137.69329,5.7309375 C137.69329,5.7309375 137.51848,4.490625 136.982878,3.9444375 C136.303183,3.22725 135.541388,3.223875 135.192326,3.18225 C132.691361,3 128.939915,3 128.939915,3 L128.932096,3 C128.932096,3 125.180649,3 122.679685,3.18225 C122.330063,3.223875 121.568827,3.22725 120.888574,3.9444375 C120.352972,4.490625 120.17872,5.7309375 120.17872,5.7309375 C120.17872,5.7309375 120,7.1878125 120,8.644125 L120,10.009875 C120,11.46675 120.17872,12.9230625 120.17872,12.9230625 C120.17872,12.9230625 120.352972,14.163375 120.888574,14.7095625 C121.568827,15.42675 122.461869,15.40425 122.859522,15.4790625 C124.289282,15.6174375 128.936005,15.6601875 128.936005,15.6601875 C128.936005,15.6601875 132.691361,15.6545625 135.192326,15.4723125 C135.541388,15.430125 136.303183,15.42675 136.982878,14.7095625 C137.51848,14.163375 137.69329,12.9230625 137.69329,12.9230625 C137.69329,12.9230625 137.87201,11.46675 137.87201,10.009875 L137.87201,8.644125 C137.87201,7.1878125 137.69329,5.7309375 137.69329,5.7309375 L137.69329,5.7309375 Z" id="Fill-25" stroke="none" fill="#4C4C4A" fill-rule="evenodd"></path>
</svg>